<svg width="24" height="24" viewBox="0 0 24 24" fill="none" xmlns="http://www.w3.org/2000/svg">
<g clip-path="url(#clip0_108_1539)">
<path d="M24 8.94622C24.0004 9.35265 23.9783 9.75879 23.9338 10.1628C23.4 15.2111 19.531 20.52 12 22.9655C4.48139 20.5324 0.600009 15.24 0.0662161 10.1628C0.0215847 9.7588 -0.000518473 9.35265 9.2288e-06 8.94622C9.2288e-06 4.93243 2.44966 1.44829 6.00001 1.44829C7.15631 1.44605 8.29902 1.69747 9.3476 2.18484L15.2979 1.92002C16.1641 1.60597 17.0787 1.44631 18 1.44829C21.5504 1.44829 24 4.93243 24 8.94622Z" fill="#DF4D60"/>
<path d="M24 8.94622C24.0004 9.35265 23.9783 9.75879 23.9338 10.1628C22.4524 13.9697 17.669 16.7586 12 16.7586C6.33104 16.7586 1.5476 13.9697 0.0662161 10.1628C0.0215847 9.7588 -0.000518473 9.35265 9.2288e-06 8.94622C9.2288e-06 4.93243 2.44966 1.44829 6.00001 1.44829C7.15631 1.44605 8.29902 1.69747 9.3476 2.18484L15.2979 1.92002C16.1641 1.60597 17.0787 1.44631 18 1.44829C21.5504 1.44829 24 4.93243 24 8.94622Z" fill="#FF5364"/>
<path d="M21.2069 16.7835C19.4725 18.9915 17.2312 20.7487 14.6731 21.9062C14.4248 22.0262 14.1724 22.1421 13.9158 22.2455C13.3075 22.5103 12.6662 22.7503 12 22.9655C11.7186 22.8745 11.4413 22.7793 11.1724 22.68V18.4138C10.1374 17.2807 9.54917 15.8102 9.5172 14.2759C9.53983 12.8139 9.91456 11.3788 10.6096 10.0924C10.6565 9.9908 10.659 9.87429 10.6166 9.77073C10.5743 9.66717 10.4908 9.58585 10.3862 9.54621C9.18232 9.12991 7.9192 8.91054 6.64548 8.89655C4.66341 8.23448 4.52686 6.25242 4.55582 5.48276C4.56163 5.29954 4.68833 5.14242 4.86617 5.09793L7.26617 4.50207C7.66603 4.40062 8.01402 4.15437 8.24272 3.81104L9.21513 2.35448C9.25565 2.2952 9.29988 2.23853 9.34755 2.18483C9.55296 1.94619 9.82319 1.77227 10.1255 1.68414C11.2787 1.32089 12.4728 1.10266 13.68 1.03448C14.3254 1.06984 14.9202 1.39538 15.2979 1.92C16.1596 3.1032 16.6088 4.53665 16.5765 6C16.5765 7.05931 16.1213 7.66759 15.4965 7.9531V7.96138L15.6165 8.79311L15.7075 9.43035C15.73 9.59428 15.8494 9.72835 16.0096 9.76966C16.705 10.0065 17.3277 10.4184 17.8179 10.9655C18.5834 11.7269 20.1269 14.2138 21.2069 16.7835Z" fill="#35495E"/>
<path d="M15.6166 8.79309C15.2892 8.91908 14.9411 8.98225 14.5903 8.9793C14.1383 8.97629 13.6907 8.8893 13.2703 8.72275C12.7996 8.53221 12.4906 8.07611 12.4883 7.56827V4.75861C12.4883 4.53008 12.6735 4.34482 12.9021 4.34482C13.1306 4.34482 13.3159 4.53008 13.3159 4.75861V7.56827C13.3157 7.73784 13.419 7.89035 13.5766 7.95309C14.1554 8.20232 14.8087 8.21569 15.3972 7.99033C15.4289 7.97635 15.4623 7.96661 15.4966 7.96137L15.6166 8.79309Z" fill="#2C3E50"/>
<path d="M18.6001 17.7186C18.5254 17.9343 18.2915 18.0504 18.0745 17.9793C17.2965 17.6753 16.4181 17.7793 15.7325 18.2565C14.9249 18.8918 14.4623 19.8693 14.4828 20.8965C14.4764 21.2426 14.5412 21.5863 14.6732 21.9062C14.4249 22.0262 14.1725 22.1421 13.9159 22.2455C13.7387 21.8181 13.65 21.3592 13.6552 20.8965C13.6361 19.604 14.2263 18.3777 15.2483 17.5862C16.1511 16.9542 17.3072 16.8072 18.3394 17.1931C18.5551 17.2678 18.6711 17.5017 18.6001 17.7186Z" fill="#2C3E50"/>
<path d="M6.20684 4.76691V6.00001C6.20684 6.22854 6.02158 6.4138 5.79305 6.4138H4.61374C4.56348 6.10616 4.54408 5.79427 4.55581 5.48277C4.56161 5.29954 4.68831 5.14243 4.86615 5.09794L6.20684 4.76691Z" fill="#3F5C6C"/>
</g>
<defs>
<clipPath id="clip0_108_1539">
<rect width="24" height="24" fill="white"/>
</clipPath>
</defs>
</svg>
